# xmcd CD database file generated by Grip 2.96
# 
# Track frame offsets:
#       150
#       19651
#       34275
#       49878
#       70029
#       83908
#       105320
#       128684
#       142660
#       156918
# 
# Disc length: 2256 seconds
# 
# Revision: 0
# Processed by: cddbd v1.4PL0 Copyright (c) Steve Scherf et al.
# Submitted via: Grip 2.96
# 
DISCID=7708ce0a
DTITLE=Loredana - Agurida
DYEAR=1900
DGENRE=
TTITLE0=Marioara de la Gorj
TTITLE1=Hai iu iu
TTITLE2=Trandafir de la Moldova
TTITLE3=Cip-cirip
TTITLE4=Bun ii vinu' ghiurghiuliu
TTITLE5=Agurida
TTITLE6=Un tigan avea o casa
TTITLE7=Se teme Ion ca moare
TTITLE8=Mi-am pus busuioc in par
TTITLE9=Marie si Marioara
EXTD=
EXTT0=
EXTT1=
EXTT2=
EXTT3=
EXTT4=
EXTT5=
EXTT6=
EXTT7=
EXTT8=
EXTT9=
PLAYORDER=
